<svg xmlns="http://www.w3.org/2000/svg"><symbol id="it-logo" viewBox="0 0 16 24"><path d="m11.8 21.7l-3.6 1.8q-0.2 0.1-0.4 0l-3.6-1.8q-2.3-1.2-3.6-3.9-0.6-1.4-0.6-2.9v-8.7l3.5-1-1.6-4.6q0-0.1 0-0.1c0-0.3 0.2-0.5 0.5-0.5h1.8q0.3 0 0.4 0.2l1 1.4 1.1-1.4q0.1-0.2 0.4-0.2h1.8q0.3 0 0.4 0.2l1.1 1.4 1-1.4q0.1-0.2 0.4-0.2c0.1 0 1.9 0 2 0 0.2 0.1 0.4 0.4 0.3 0.6l-1.6 4.6 3.5 1v8.7q0 1.5-0.6 2.9-1.3 2.9-3.6 3.9zm-7.4-16.8l3.5-1.1q0.1-0.1 0.2 0l3.5 1.1 1.4-4h-1l-1.3 1.7q0 0.1 0 0.1c-0.2 0.2-0.6 0.1-0.7-0.1l-1.3-1.7h-1.4l-1.3 1.7q0 0.1 0 0.1c-0.3 0.2-0.6 0.1-0.7-0.1l-1.3-1.7h-1zm10.7 10.1v-8l-7-2.2-7.1 2.2v8c0 2.5 1.4 4.8 3.6 5.9l3.5 1.7 3.4-1.7c2.2-1.1 3.6-3.4 3.6-5.9z"/><path d="m6.6 15.8v-3.7h0.9v3.7z"/><path d="m9.5 12.9c0 0.1 0 1.8 0 1.9q0 0.1 0.1 0.1 0.1 0.1 0.2 0.1h0.6v0.8q-0.5 0.1-0.7 0.1-0.7 0-0.9-0.3-0.3-0.3-0.3-1.1v-3.4h1v1h0.9v0.8zm-4.4 0.3q-0.2 0-0.4-0.2-0.2-0.1-0.2-0.4 0-0.2 0.2-0.4 0.2-0.2 0.4-0.2 0.3 0 0.5 0.2 0.1 0.2 0.1 0.4 0 0.3-0.1 0.4-0.2 0.2-0.5 0.2z"/></symbol></svg>